<?xml version="1.0" encoding="utf-8"?>
<!-- Generator: Adobe Illustrator 19.0.1, SVG Export Plug-In . SVG Version: 6.00 Build 0)  -->
<svg version="1.1" xmlns="http://www.w3.org/2000/svg" xmlns:xlink="http://www.w3.org/1999/xlink" x="0px" y="0px"
	 viewBox="0 0 612 792" style="enable-background:new 0 0 612 792;" xml:space="preserve">
<style type="text/css">
	.st0{fill:#422918;}
	.st1{fill:#168F37;}
	.st2{fill:#3E7F98;}
	.st3{fill:#F5CE86;}
	.st4{fill:#909090;}
	.st5{display:none;}
	.st6{display:inline;}
	.st7{fill:none;stroke:#1C1C1B;stroke-width:3.0047;stroke-linecap:round;stroke-linejoin:round;stroke-miterlimit:10;}
	.st8{fill:#2C1A10;}
	.st9{fill:#1C1C1B;}
	.st10{fill:none;stroke:#1C1C1B;stroke-width:0.9921;stroke-linecap:round;stroke-linejoin:round;stroke-miterlimit:10;}
	.st11{fill:#F9D666;}
	.st12{fill:#683B12;}
	.st13{fill:none;stroke:#1C1C1B;stroke-width:1.9843;stroke-linecap:round;stroke-linejoin:round;stroke-miterlimit:10;}
	.st14{fill:#8BBC25;}
	.st15{fill:#189037;}
	.st16{fill:#A4C420;}
	.st17{fill:#CEC417;}
	.st18{fill:none;stroke:#000000;stroke-width:0;stroke-linecap:round;stroke-linejoin:round;stroke-miterlimit:10;}
	.st19{fill:#87C6BE;}
	.st20{fill:#219C6B;}
	.st21{fill:#2F438C;}
</style>
<g id="Layer_7">
</g>
<g id="Layer_6">
</g>
<g id="Layer_4">
</g>
<g id="Layer_5">
</g>
<g id="Layer_8">
</g>
<g id="Layer_3">
</g>
<g id="Layer_2">
</g>
<g id="Layer_9">
	<g>
		<rect x="195.2" y="459.4" class="st0" width="66.4" height="49.8"/>
		<rect x="211.8" y="442.8" class="st0" width="16.6" height="24.9"/>
		<rect x="211.8" y="509.2" class="st0" width="33.2" height="16.6"/>
		<rect x="344.6" y="459.4" class="st0" width="33.2" height="66.4"/>
		<rect x="361.2" y="459.4" class="st0" width="33.2" height="49.8"/>
		<rect x="386.1" y="459.4" class="st0" width="24.9" height="32.2"/>
		<rect x="299.3" y="491.5" class="st1" width="45.3" height="17.6"/>
		<rect x="228.4" y="442.8" class="st1" width="132.8" height="16.6"/>
		<rect x="245" y="459.4" class="st1" width="116.2" height="33.2"/>
		<rect x="228.4" y="476" class="st1" width="20.8" height="16.6"/>
		<rect x="361.2" y="459.4" class="st1" width="16.6" height="16.6"/>
		<rect x="228.4" y="410.1" class="st2" width="132.8" height="32.7"/>
		<rect x="344.6" y="393.5" class="st2" width="16.6" height="49.3"/>
		<rect x="352.9" y="426.2" class="st2" width="24.9" height="16.9"/>
		<rect x="245" y="442.8" class="st3" width="33.2" height="33.2"/>
		<rect x="270.6" y="442.8" class="st3" width="24.3" height="16.6"/>
		<rect x="361.2" y="393.5" class="st3" width="16.6" height="32.7"/>
		<rect x="394.4" y="377.4" class="st4" width="66.4" height="32.2"/>
		<rect x="444.2" y="344.2" class="st4" width="16.6" height="99.1"/>
		<rect x="427.6" y="360.8" class="st4" width="33.2" height="65.9"/>
		<rect x="394.4" y="377.2" class="st4" width="49.8" height="32.4"/>
		<rect x="377.8" y="377.2" class="st4" width="16.6" height="16.2"/>
		<rect x="377.8" y="409.6" class="st4" width="16.6" height="16.6"/>
		<rect x="261.9" y="294.4" class="st3" width="82.7" height="66.4"/>
		<rect x="228.4" y="327.6" class="st3" width="145.5" height="33.2"/>
		<rect x="245" y="352.5" class="st3" width="33.2" height="41"/>
		<rect x="270.6" y="377.7" class="st3" width="57.5" height="15.9"/>
		<rect x="278.2" y="360.8" class="st0" width="83" height="16.8"/>
		<rect x="228.4" y="360.8" class="st0" width="16.6" height="32.7"/>
		<rect x="245" y="393.5" class="st0" width="83.4" height="18"/>
		<rect x="328" y="377.7" class="st0" width="16.6" height="33.9"/>
		<rect x="344.6" y="311" class="st3" width="16.6" height="21.1"/>
		<rect x="261.6" y="261.2" class="st0" width="83" height="33.2"/>
		<rect x="245" y="277.8" class="st0" width="116.2" height="16.6"/>
		<rect x="228.4" y="294.4" class="st0" width="49.8" height="16.6"/>
		<rect x="211.8" y="311" class="st0" width="49.8" height="16.6"/>
		<rect x="211.8" y="327.6" class="st0" width="16.6" height="33.2"/>
		<rect x="245" y="327.6" class="st0" width="16.6" height="33.2"/>
		<rect x="253.3" y="327.6" class="st0" width="24.9" height="16.6"/>
		<rect x="328" y="294.4" class="st0" width="16.6" height="16.6"/>
		<rect x="294.8" y="311" width="20.3" height="33.2"/>
		<rect x="328" y="311" width="16.6" height="33.2"/>
	</g>
</g>
<g id="Layer_1" class="st5">
	<g id="POLYLINE" class="st6">
		<polyline class="st7" points="353.7,251.9 329.6,251.9 329.6,227.8 353.7,227.8 353.7,251.9 		"/>
	</g>
	<g id="HATCH" class="st6">
		<polygon class="st8" points="353.7,251.9 329.6,251.9 329.6,227.8 353.7,227.8 353.7,251.9 		"/>
	</g>
	<g id="POLYLINE_1_" class="st6">
		<polyline class="st7" points="329.6,276.1 305.4,276.1 305.4,251.9 329.6,251.9 329.6,276.1 		"/>
	</g>
	<g id="HATCH_1_" class="st6">
		<polygon class="st0" points="329.6,276.1 305.4,276.1 305.4,251.9 329.6,251.9 329.6,276.1 		"/>
	</g>
	<g id="POLYLINE_2_" class="st6">
		<polyline class="st7" points="329.6,300.2 305.4,300.2 305.4,276.1 329.6,276.1 329.6,300.2 		"/>
	</g>
	<g id="HATCH_2_" class="st6">
		<polygon class="st9" points="329.6,300.2 305.4,300.2 305.4,276.1 329.6,276.1 329.6,300.2 		"/>
	</g>
	<g id="POLYLINE_3_" class="st6">
		<polyline class="st10" points="353.7,300.2 329.6,300.2 329.6,276.1 353.7,276.1 353.7,300.2 		"/>
	</g>
	<g id="HATCH_3_" class="st6">
		<polygon class="st3" points="353.7,300.2 329.6,300.2 329.6,276.1 353.7,276.1 353.7,300.2 		"/>
	</g>
	<g id="POLYLINE_4_" class="st6">
		<polyline class="st10" points="377.8,324.4 353.7,324.4 353.7,300.2 377.8,300.2 377.8,324.4 		"/>
	</g>
	<g id="HATCH_4_" class="st6">
		<polygon class="st11" points="377.8,324.4 353.7,324.4 353.7,300.2 377.8,300.2 377.8,324.4 		"/>
	</g>
	<g id="POLYLINE_5_" class="st6">
		<polyline class="st7" points="184.7,300.2 160.5,300.2 160.5,276.1 184.7,276.1 184.7,300.2 		"/>
	</g>
	<g id="HATCH_5_" class="st6">
		<polygon class="st0" points="184.7,300.2 160.5,300.2 160.5,276.1 184.7,276.1 184.7,300.2 		"/>
	</g>
	<g id="POLYLINE_6_" class="st6">
		<polyline class="st10" points="184.7,324.4 160.5,324.4 160.5,300.2 184.7,300.2 184.7,324.4 		"/>
	</g>
	<g id="HATCH_6_" class="st6">
		<polygon class="st11" points="184.7,324.4 160.5,324.4 160.5,300.2 184.7,300.2 184.7,324.4 		"/>
	</g>
	<g id="POLYLINE_7_" class="st6">
		<polyline class="st7" points="353.7,372.7 329.6,372.7 329.6,348.5 353.7,348.5 353.7,372.7 		"/>
	</g>
	<g id="HATCH_7_" class="st6">
		<polygon class="st8" points="353.7,372.7 329.6,372.7 329.6,348.5 353.7,348.5 353.7,372.7 		"/>
	</g>
	<g id="POLYLINE_8_" class="st6">
		<polyline class="st7" points="329.6,372.7 305.4,372.7 305.4,348.5 329.6,348.5 329.6,372.7 		"/>
	</g>
	<g id="HATCH_8_" class="st6">
		<polygon class="st0" points="329.6,372.7 305.4,372.7 305.4,348.5 329.6,348.5 329.6,372.7 		"/>
	</g>
	<g id="POLYLINE_9_" class="st6">
		<polyline class="st10" points="305.4,396.8 281.3,396.8 281.3,372.7 305.4,372.7 305.4,396.8 		"/>
	</g>
	<g id="HATCH_9_" class="st6">
		<polygon class="st11" points="305.4,396.8 281.3,396.8 281.3,372.7 305.4,372.7 305.4,396.8 		"/>
	</g>
	<g id="POLYLINE_10_" class="st6">
		<polyline class="st10" points="281.3,396.8 257.1,396.8 257.1,372.7 281.3,372.7 281.3,396.8 		"/>
	</g>
	<g id="HATCH_10_" class="st6">
		<polygon class="st11" points="281.3,396.8 257.1,396.8 257.1,372.7 281.3,372.7 281.3,396.8 		"/>
	</g>
	<g id="POLYLINE_11_" class="st6">
		<polyline class="st10" points="257.1,396.8 233,396.8 233,372.7 257.1,372.7 257.1,396.8 		"/>
	</g>
	<g id="HATCH_11_" class="st6">
		<polygon class="st11" points="257.1,396.8 233,396.8 233,372.7 257.1,372.7 257.1,396.8 		"/>
	</g>
	<g id="POLYLINE_12_" class="st6">
		<polyline class="st10" points="233,396.8 208.8,396.8 208.8,372.7 233,372.7 233,396.8 		"/>
	</g>
	<g id="HATCH_12_" class="st6">
		<polygon class="st11" points="233,396.8 208.8,396.8 208.8,372.7 233,372.7 233,396.8 		"/>
	</g>
	<g id="POLYLINE_13_" class="st6">
		<polyline class="st7" points="160.5,300.2 136.4,300.2 136.4,276.1 160.5,276.1 160.5,300.2 		"/>
	</g>
	<g id="HATCH_13_" class="st6">
		<polygon class="st8" points="160.5,300.2 136.4,300.2 136.4,276.1 160.5,276.1 160.5,300.2 		"/>
	</g>
	<g id="POLYLINE_14_" class="st6">
		<polyline class="st7" points="160.5,324.4 136.4,324.4 136.4,300.2 160.5,300.2 160.5,324.4 		"/>
	</g>
	<g id="HATCH_14_" class="st6">
		<polygon class="st0" points="160.5,324.4 136.4,324.4 136.4,300.2 160.5,300.2 160.5,324.4 		"/>
	</g>
	<g id="POLYLINE_15_" class="st6">
		<polyline class="st7" points="184.7,276.1 160.5,276.1 160.5,251.9 184.7,251.9 184.7,276.1 		"/>
	</g>
	<g id="HATCH_15_" class="st6">
		<polygon class="st0" points="184.7,276.1 160.5,276.1 160.5,251.9 184.7,251.9 184.7,276.1 		"/>
	</g>
	<g id="POLYLINE_16_" class="st6">
		<polyline class="st7" points="208.8,251.9 184.7,251.9 184.7,227.8 208.8,227.8 208.8,251.9 		"/>
	</g>
	<g id="HATCH_16_" class="st6">
		<polygon class="st8" points="208.8,251.9 184.7,251.9 184.7,227.8 208.8,227.8 208.8,251.9 		"/>
	</g>
	<g id="POLYLINE_17_" class="st6">
		<polyline class="st7" points="233,227.8 208.8,227.8 208.8,203.6 233,203.6 233,227.8 		"/>
	</g>
	<g id="HATCH_17_" class="st6">
		<polygon class="st8" points="233,227.8 208.8,227.8 208.8,203.6 233,203.6 233,227.8 		"/>
	</g>
	<g id="POLYLINE_18_" class="st6">
		<polyline class="st10" points="184.7,348.5 160.5,348.5 160.5,324.4 184.7,324.4 184.7,348.5 		"/>
	</g>
	<g id="HATCH_18_" class="st6">
		<polygon class="st11" points="184.7,348.5 160.5,348.5 160.5,324.4 184.7,324.4 184.7,348.5 		"/>
	</g>
	<g id="POLYLINE_19_" class="st6">
		<polyline class="st10" points="208.8,372.7 184.7,372.7 184.7,348.5 208.8,348.5 208.8,372.7 		"/>
	</g>
	<g id="HATCH_19_" class="st6">
		<polygon class="st11" points="208.8,372.7 184.7,372.7 184.7,348.5 208.8,348.5 208.8,372.7 		"/>
	</g>
	<g id="POLYLINE_20_" class="st6">
		<polyline class="st10" points="208.8,396.8 184.7,396.8 184.7,372.7 208.8,372.7 208.8,396.8 		"/>
	</g>
	<g id="HATCH_20_" class="st6">
		<polygon class="st11" points="208.8,396.8 184.7,396.8 184.7,372.7 208.8,372.7 208.8,396.8 		"/>
	</g>
	<g id="POLYLINE_21_" class="st6">
		<polyline class="st7" points="329.6,251.9 305.4,251.9 305.4,227.8 329.6,227.8 329.6,251.9 		"/>
	</g>
	<g id="HATCH_21_" class="st6">
		<polygon class="st0" points="329.6,251.9 305.4,251.9 305.4,227.8 329.6,227.8 329.6,251.9 		"/>
	</g>
	<g id="POLYLINE_22_" class="st6">
		<polyline class="st7" points="305.4,251.9 281.3,251.9 281.3,227.8 305.4,227.8 305.4,251.9 		"/>
	</g>
	<g id="HATCH_22_" class="st6">
		<polygon class="st0" points="305.4,251.9 281.3,251.9 281.3,227.8 305.4,227.8 305.4,251.9 		"/>
	</g>
	<g id="POLYLINE_23_" class="st6">
		<polyline class="st7" points="281.3,251.9 257.1,251.9 257.1,227.8 281.3,227.8 281.3,251.9 		"/>
	</g>
	<g id="HATCH_23_" class="st6">
		<polygon class="st0" points="281.3,251.9 257.1,251.9 257.1,227.8 281.3,227.8 281.3,251.9 		"/>
	</g>
	<g id="POLYLINE_24_" class="st6">
		<polyline class="st7" points="257.1,251.9 233,251.9 233,227.8 257.1,227.8 257.1,251.9 		"/>
	</g>
	<g id="HATCH_24_" class="st6">
		<polygon class="st0" points="257.1,251.9 233,251.9 233,227.8 257.1,227.8 257.1,251.9 		"/>
	</g>
	<g id="POLYLINE_25_" class="st6">
		<polyline class="st7" points="305.4,372.7 281.3,372.7 281.3,348.5 305.4,348.5 305.4,372.7 		"/>
	</g>
	<g id="HATCH_25_" class="st6">
		<polygon class="st0" points="305.4,372.7 281.3,372.7 281.3,348.5 305.4,348.5 305.4,372.7 		"/>
	</g>
	<g id="POLYLINE_26_" class="st6">
		<polyline class="st7" points="281.3,372.7 257.1,372.7 257.1,348.5 281.3,348.5 281.3,372.7 		"/>
	</g>
	<g id="HATCH_26_" class="st6">
		<polygon class="st0" points="281.3,372.7 257.1,372.7 257.1,348.5 281.3,348.5 281.3,372.7 		"/>
	</g>
	<g id="POLYLINE_27_" class="st6">
		<polyline class="st7" points="257.1,372.7 233,372.7 233,348.5 257.1,348.5 257.1,372.7 		"/>
	</g>
	<g id="HATCH_27_" class="st6">
		<polygon class="st0" points="257.1,372.7 233,372.7 233,348.5 257.1,348.5 257.1,372.7 		"/>
	</g>
	<g id="POLYLINE_28_" class="st6">
		<polyline class="st10" points="233,372.7 208.8,372.7 208.8,348.5 233,348.5 233,372.7 		"/>
	</g>
	<g id="HATCH_28_" class="st6">
		<polygon class="st11" points="233,372.7 208.8,372.7 208.8,348.5 233,348.5 233,372.7 		"/>
	</g>
	<g id="POLYLINE_29_" class="st6">
		<polyline class="st7" points="160.5,348.5 136.4,348.5 136.4,324.4 160.5,324.4 160.5,348.5 		"/>
	</g>
	<g id="HATCH_29_" class="st6">
		<polygon class="st12" points="160.5,348.5 136.4,348.5 136.4,324.4 160.5,324.4 160.5,348.5 		"/>
	</g>
	<g id="POLYLINE_30_" class="st6">
		<polyline class="st7" points="184.7,372.7 160.5,372.7 160.5,348.5 184.7,348.5 184.7,372.7 		"/>
	</g>
	<g id="HATCH_30_" class="st6">
		<polygon class="st0" points="184.7,372.7 160.5,372.7 160.5,348.5 184.7,348.5 184.7,372.7 		"/>
	</g>
	<g id="POLYLINE_31_" class="st6">
		<polyline class="st7" points="160.5,516 136.4,516 136.4,491.9 160.5,491.9 160.5,516 		"/>
	</g>
	<g id="HATCH_31_" class="st6">
		<polygon class="st0" points="160.5,516 136.4,516 136.4,491.9 160.5,491.9 160.5,516 		"/>
	</g>
	<g id="POLYLINE_32_" class="st6">
		<polyline class="st7" points="160.5,540.2 136.4,540.2 136.4,516 160.5,516 160.5,540.2 		"/>
	</g>
	<g id="HATCH_32_" class="st6">
		<polygon class="st0" points="160.5,540.2 136.4,540.2 136.4,516 160.5,516 160.5,540.2 		"/>
	</g>
	<g id="POLYLINE_33_" class="st6">
		<polyline class="st7" points="160.5,564.3 136.4,564.3 136.4,540.2 160.5,540.2 160.5,564.3 		"/>
	</g>
	<g id="HATCH_33_" class="st6">
		<polygon class="st0" points="160.5,564.3 136.4,564.3 136.4,540.2 160.5,540.2 160.5,564.3 		"/>
	</g>
	<g id="POLYLINE_34_" class="st6">
		<polyline class="st13" points="257.1,540.2 233,540.2 233,516 257.1,516 257.1,540.2 		"/>
	</g>
	<g id="HATCH_34_" class="st6">
		<polygon class="st14" points="257.1,540.2 233,540.2 233,516 257.1,516 257.1,540.2 		"/>
	</g>
	<g id="POLYLINE_35_" class="st6">
		<polyline class="st13" points="233,540.2 208.8,540.2 208.8,516 233,516 233,540.2 		"/>
	</g>
	<g id="HATCH_35_" class="st6">
		<polygon class="st15" points="233,540.2 208.8,540.2 208.8,516 233,516 233,540.2 		"/>
	</g>
	<g id="POLYLINE_36_" class="st6">
		<polyline class="st13" points="305.4,564.3 281.3,564.3 281.3,540.2 305.4,540.2 305.4,564.3 		"/>
	</g>
	<g id="HATCH_36_" class="st6">
		<polygon class="st15" points="305.4,564.3 281.3,564.3 281.3,540.2 305.4,540.2 305.4,564.3 		"/>
	</g>
	<g id="POLYLINE_37_" class="st6">
		<polyline class="st13" points="281.3,564.3 257.1,564.3 257.1,540.2 281.3,540.2 281.3,564.3 		"/>
	</g>
	<g id="HATCH_37_" class="st6">
		<polygon class="st1" points="281.3,564.3 257.1,564.3 257.1,540.2 281.3,540.2 281.3,564.3 		"/>
	</g>
	<g id="POLYLINE_38_" class="st6">
		<polyline class="st13" points="329.6,564.3 305.4,564.3 305.4,540.2 329.6,540.2 329.6,564.3 		"/>
	</g>
	<g id="HATCH_38_" class="st6">
		<polygon class="st15" points="329.6,564.3 305.4,564.3 305.4,540.2 329.6,540.2 329.6,564.3 		"/>
	</g>
	<g id="POLYLINE_39_" class="st6">
		<polyline class="st7" points="353.7,564.3 329.6,564.3 329.6,540.2 353.7,540.2 353.7,564.3 		"/>
	</g>
	<g id="HATCH_39_" class="st6">
		<polygon points="353.7,564.3 329.6,564.3 329.6,540.2 353.7,540.2 353.7,564.3 		"/>
	</g>
	<g id="POLYLINE_40_" class="st6">
		<polyline class="st7" points="377.8,588.5 353.7,588.5 353.7,564.3 377.8,564.3 377.8,588.5 		"/>
	</g>
	<g id="HATCH_40_" class="st6">
		<polygon points="377.8,588.5 353.7,588.5 353.7,564.3 377.8,564.3 377.8,588.5 		"/>
	</g>
	<g id="POLYLINE_41_" class="st6">
		<polyline class="st7" points="353.7,588.5 329.6,588.5 329.6,564.3 353.7,564.3 353.7,588.5 		"/>
	</g>
	<g id="HATCH_41_" class="st6">
		<polygon points="353.7,588.5 329.6,588.5 329.6,564.3 353.7,564.3 353.7,588.5 		"/>
	</g>
	<g id="POLYLINE_42_" class="st6">
		<polyline class="st7" points="402,564.3 377.8,564.3 377.8,540.2 402,540.2 402,564.3 		"/>
	</g>
	<g id="HATCH_42_" class="st6">
		<polygon points="402,564.3 377.8,564.3 377.8,540.2 402,540.2 402,564.3 		"/>
	</g>
	<g id="POLYLINE_43_" class="st6">
		<polyline class="st7" points="426.1,538.7 402,538.7 402,514.5 426.1,514.5 426.1,538.7 		"/>
	</g>
	<g id="HATCH_43_" class="st6">
		<polygon points="426.1,538.7 402,538.7 402,514.5 426.1,514.5 426.1,538.7 		"/>
	</g>
	<g id="POLYLINE_44_" class="st6">
		<polyline class="st7" points="426.1,516 402,516 402,491.9 426.1,491.9 426.1,516 		"/>
	</g>
	<g id="HATCH_44_" class="st6">
		<polygon points="426.1,516 402,516 402,491.9 426.1,491.9 426.1,516 		"/>
	</g>
	<g id="POLYLINE_45_" class="st6">
		<polyline class="st7" points="402,516 377.8,516 377.8,491.9 402,491.9 402,516 		"/>
	</g>
	<g id="HATCH_45_" class="st6">
		<polygon points="402,516 377.8,516 377.8,491.9 402,491.9 402,516 		"/>
	</g>
	<g id="POLYLINE_46_" class="st6">
		<polyline class="st13" points="377.8,516 353.7,516 353.7,491.9 377.8,491.9 377.8,516 		"/>
	</g>
	<g id="HATCH_46_" class="st6">
		<polygon class="st16" points="377.8,516 353.7,516 353.7,491.9 377.8,491.9 377.8,516 		"/>
	</g>
	<g id="POLYLINE_47_" class="st6">
		<polyline class="st7" points="402,540.2 377.8,540.2 377.8,516 402,516 402,540.2 		"/>
	</g>
	<g id="HATCH_47_" class="st6">
		<polygon class="st0" points="402,540.2 377.8,540.2 377.8,516 402,516 402,540.2 		"/>
	</g>
	<g id="POLYLINE_48_" class="st6">
		<polyline class="st7" points="377.8,540.2 353.7,540.2 353.7,516 377.8,516 377.8,540.2 		"/>
	</g>
	<g id="HATCH_48_" class="st6">
		<polygon points="377.8,540.2 353.7,540.2 353.7,516 377.8,516 377.8,540.2 		"/>
	</g>
	<g id="POLYLINE_49_" class="st6">
		<polyline class="st13" points="353.7,540.2 329.6,540.2 329.6,516 353.7,516 353.7,540.2 		"/>
	</g>
	<g id="HATCH_49_" class="st6">
		<polygon class="st14" points="353.7,540.2 329.6,540.2 329.6,516 353.7,516 353.7,540.2 		"/>
	</g>
	<g id="POLYLINE_50_" class="st6">
		<polyline class="st7" points="377.8,565.1 353.7,565.1 353.7,540.9 377.8,540.9 377.8,565.1 		"/>
	</g>
	<g id="HATCH_50_" class="st6">
		<polygon class="st0" points="377.8,565.1 353.7,565.1 353.7,540.9 377.8,540.9 377.8,565.1 		"/>
	</g>
	<g id="POLYLINE_51_" class="st6">
		<polyline class="st13" points="329.6,540.2 305.4,540.2 305.4,516 329.6,516 329.6,540.2 		"/>
	</g>
	<g id="HATCH_51_" class="st6">
		<polygon class="st16" points="329.6,540.2 305.4,540.2 305.4,516 329.6,516 329.6,540.2 		"/>
	</g>
	<g id="POLYLINE_52_" class="st6">
		<polyline class="st13" points="305.4,540.2 281.3,540.2 281.3,516 305.4,516 305.4,540.2 		"/>
	</g>
	<g id="HATCH_52_" class="st6">
		<polygon class="st14" points="305.4,540.2 281.3,540.2 281.3,516 305.4,516 305.4,540.2 		"/>
	</g>
	<g id="POLYLINE_53_" class="st6">
		<polyline class="st13" points="281.3,540.2 257.1,540.2 257.1,516 281.3,516 281.3,540.2 		"/>
	</g>
	<g id="HATCH_53_" class="st6">
		<polygon class="st1" points="281.3,540.2 257.1,540.2 257.1,516 281.3,516 281.3,540.2 		"/>
	</g>
	<g id="POLYLINE_54_" class="st6">
		<polyline class="st13" points="353.7,516 329.6,516 329.6,491.9 353.7,491.9 353.7,516 		"/>
	</g>
	<g id="HATCH_54_" class="st6">
		<polygon class="st17" points="353.7,516 329.6,516 329.6,491.9 353.7,491.9 353.7,516 		"/>
	</g>
	<g id="POLYLINE_55_" class="st6">
		<polyline class="st13" points="329.6,516 305.4,516 305.4,491.9 329.6,491.9 329.6,516 		"/>
	</g>
	<g id="HATCH_55_" class="st6">
		<polygon class="st16" points="329.6,516 305.4,516 305.4,491.9 329.6,491.9 329.6,516 		"/>
	</g>
	<g id="POLYLINE_56_" class="st6">
		<polyline class="st7" points="305.4,516 281.3,516 281.3,491.9 305.4,491.9 305.4,516 		"/>
	</g>
	<g id="POLYLINE_57_" class="st6">
		<polyline class="st13" points="305.4,516 281.3,516 281.3,491.9 305.4,491.9 305.4,516 		"/>
	</g>
	<g id="HATCH_56_" class="st6">
		<polygon class="st1" points="305.4,516 281.3,516 281.3,491.9 305.4,491.9 305.4,516 		"/>
	</g>
	<g id="POLYLINE_58_" class="st6">
		<polyline class="st13" points="281.3,516 257.1,516 257.1,491.9 281.3,491.9 281.3,516 		"/>
	</g>
	<g id="HATCH_57_" class="st6">
		<polygon class="st1" points="281.3,516 257.1,516 257.1,491.9 281.3,491.9 281.3,516 		"/>
	</g>
	<g id="POLYLINE_59_" class="st6">
		<polyline class="st7" points="257.1,516 233,516 233,491.9 257.1,491.9 257.1,516 		"/>
	</g>
	<g id="HATCH_58_" class="st6">
		<polygon class="st1" points="257.1,516 233,516 233,491.9 257.1,491.9 257.1,516 		"/>
	</g>
	<g id="POLYLINE_60_" class="st6">
		<polyline class="st13" points="233,516 208.8,516 208.8,491.9 233,491.9 233,516 		"/>
	</g>
	<g id="HATCH_59_" class="st6">
		<polygon class="st11" points="233,516 208.8,516 208.8,491.9 233,491.9 233,516 		"/>
	</g>
	<g id="POLYLINE_61_" class="st6">
		<polyline class="st13" points="208.8,516 184.7,516 184.7,491.9 208.8,491.9 208.8,516 		"/>
	</g>
	<g id="HATCH_60_" class="st6">
		<polygon class="st11" points="208.8,516 184.7,516 184.7,491.9 208.8,491.9 208.8,516 		"/>
	</g>
	<g id="POLYLINE_62_" class="st6">
		<polyline class="st7" points="184.7,516 160.5,516 160.5,491.9 184.7,491.9 184.7,516 		"/>
	</g>
	<g id="HATCH_61_" class="st6">
		<polygon class="st0" points="184.7,516 160.5,516 160.5,491.9 184.7,491.9 184.7,516 		"/>
	</g>
	<g id="POLYLINE_63_" class="st6">
		<polyline class="st13" points="208.8,540.2 184.7,540.2 184.7,516 208.8,516 208.8,540.2 		"/>
	</g>
	<g id="HATCH_62_" class="st6">
		<polygon class="st1" points="208.8,540.2 184.7,540.2 184.7,516 208.8,516 208.8,540.2 		"/>
	</g>
	<g id="POLYLINE_64_" class="st6">
		<polyline class="st13" points="184.7,540.2 160.5,540.2 160.5,516 184.7,516 184.7,540.2 		"/>
	</g>
	<g id="HATCH_63_" class="st6">
		<polygon class="st1" points="184.7,540.2 160.5,540.2 160.5,516 184.7,516 184.7,540.2 		"/>
	</g>
	<g id="POLYLINE_65_" class="st6">
		<polyline class="st7" points="208.8,564.3 184.7,564.3 184.7,540.2 208.8,540.2 208.8,564.3 		"/>
	</g>
	<g id="HATCH_64_" class="st6">
		<polygon class="st9" points="208.8,564.3 184.7,564.3 184.7,540.2 208.8,540.2 208.8,564.3 		"/>
	</g>
	<g id="POLYLINE_66_" class="st6">
		<polyline class="st7" points="184.7,565.1 160.5,565.1 160.5,540.9 184.7,540.9 184.7,565.1 		"/>
	</g>
	<g id="HATCH_65_" class="st6">
		<polygon class="st0" points="184.7,565.1 160.5,565.1 160.5,540.9 184.7,540.9 184.7,565.1 		"/>
	</g>
	<g id="POLYLINE_67_" class="st6">
		<polyline class="st18" points="281.3,443.6 257.1,443.6 257.1,419.4 281.3,419.4 281.3,443.6 		"/>
	</g>
	<g id="HATCH_66_" class="st6">
		<polygon class="st2" points="281.3,443.6 257.1,443.6 257.1,419.4 281.3,419.4 281.3,443.6 		"/>
	</g>
	<g id="POLYLINE_68_" class="st6">
		<polyline class="st7" points="257.1,443.6 233,443.6 233,419.4 257.1,419.4 257.1,443.6 		"/>
	</g>
	<g id="HATCH_67_" class="st6">
		<polygon class="st19" points="257.1,443.6 233,443.6 233,419.4 257.1,419.4 257.1,443.6 		"/>
	</g>
	<g id="POLYLINE_69_" class="st6">
		<polyline class="st13" points="353.7,491.9 329.6,491.9 329.6,467.7 353.7,467.7 353.7,491.9 		"/>
	</g>
	<g id="HATCH_68_" class="st6">
		<polygon class="st1" points="353.7,491.9 329.6,491.9 329.6,467.7 353.7,467.7 353.7,491.9 		"/>
	</g>
	<g id="POLYLINE_70_" class="st6">
		<polyline class="st13" points="329.6,491.9 305.4,491.9 305.4,467.7 329.6,467.7 329.6,491.9 		"/>
	</g>
	<g id="HATCH_69_" class="st6">
		<polygon class="st1" points="329.6,491.9 305.4,491.9 305.4,467.7 329.6,467.7 329.6,491.9 		"/>
	</g>
	<g id="POLYLINE_71_" class="st6">
		<polyline class="st13" points="305.4,491.9 281.3,491.9 281.3,467.7 305.4,467.7 305.4,491.9 		"/>
	</g>
	<g id="HATCH_70_" class="st6">
		<polygon class="st20" points="305.4,491.9 281.3,491.9 281.3,467.7 305.4,467.7 305.4,491.9 		"/>
	</g>
	<g id="POLYLINE_72_" class="st6">
		<polyline class="st13" points="281.3,491.9 257.1,491.9 257.1,467.7 281.3,467.7 281.3,491.9 		"/>
	</g>
	<g id="HATCH_71_" class="st6">
		<polygon class="st20" points="281.3,491.9 257.1,491.9 257.1,467.7 281.3,467.7 281.3,491.9 		"/>
	</g>
	<g id="POLYLINE_73_" class="st6">
		<polyline class="st7" points="257.1,491.9 233,491.9 233,467.7 257.1,467.7 257.1,491.9 		"/>
	</g>
	<g id="POLYLINE_74_" class="st6">
		<polyline class="st13" points="257.1,491.9 233,491.9 233,467.7 257.1,467.7 257.1,491.9 		"/>
	</g>
	<g id="HATCH_72_" class="st6">
		<polygon class="st11" points="257.1,491.9 233,491.9 233,467.7 257.1,467.7 257.1,491.9 		"/>
	</g>
	<g id="POLYLINE_75_" class="st6">
		<polyline class="st13" points="233,491.9 208.8,491.9 208.8,467.7 233,467.7 233,491.9 		"/>
	</g>
	<g id="HATCH_73_" class="st6">
		<polygon class="st11" points="233,491.9 208.8,491.9 208.8,467.7 233,467.7 233,491.9 		"/>
	</g>
	<g id="POLYLINE_76_" class="st6">
		<polyline class="st13" points="208.8,491.9 184.7,491.9 184.7,467.7 208.8,467.7 208.8,491.9 		"/>
	</g>
	<g id="HATCH_74_" class="st6">
		<polygon class="st11" points="208.8,491.9 184.7,491.9 184.7,467.7 208.8,467.7 208.8,491.9 		"/>
	</g>
	<g id="POLYLINE_77_" class="st6">
		<polyline class="st7" points="329.6,467.7 305.4,467.7 305.4,443.6 329.6,443.6 329.6,467.7 		"/>
	</g>
	<g id="HATCH_75_" class="st6">
		<polygon class="st2" points="329.6,467.7 305.4,467.7 305.4,443.6 329.6,443.6 329.6,467.7 		"/>
	</g>
	<g id="POLYLINE_78_" class="st6">
		<polyline class="st7" points="305.4,467.7 281.3,467.7 281.3,443.6 305.4,443.6 305.4,467.7 		"/>
	</g>
	<g id="HATCH_76_" class="st6">
		<polygon class="st2" points="305.4,467.7 281.3,467.7 281.3,443.6 305.4,443.6 305.4,467.7 		"/>
	</g>
	<g id="POLYLINE_79_" class="st6">
		<polyline class="st7" points="281.3,467.7 257.1,467.7 257.1,443.6 281.3,443.6 281.3,467.7 		"/>
	</g>
	<g id="HATCH_77_" class="st6">
		<polygon class="st2" points="281.3,467.7 257.1,467.7 257.1,443.6 281.3,443.6 281.3,467.7 		"/>
	</g>
	<g id="POLYLINE_80_" class="st6">
		<polyline class="st13" points="257.1,467.7 233,467.7 233,443.6 257.1,443.6 257.1,467.7 		"/>
	</g>
	<g id="HATCH_78_" class="st6">
		<polygon class="st2" points="257.1,467.7 233,467.7 233,443.6 257.1,443.6 257.1,467.7 		"/>
	</g>
	<g id="POLYLINE_81_" class="st6">
		<polyline class="st13" points="233,467.7 208.8,467.7 208.8,443.6 233,443.6 233,467.7 		"/>
	</g>
	<g id="HATCH_79_" class="st6">
		<polygon class="st2" points="233,467.7 208.8,467.7 208.8,443.6 233,443.6 233,467.7 		"/>
	</g>
	<g id="POLYLINE_82_" class="st6">
		<polyline class="st18" points="329.6,443.6 305.4,443.6 305.4,419.4 329.6,419.4 329.6,443.6 		"/>
	</g>
	<g id="HATCH_80_" class="st6">
		<polygon class="st2" points="329.6,443.6 305.4,443.6 305.4,419.4 329.6,419.4 329.6,443.6 		"/>
	</g>
	<g id="POLYLINE_83_" class="st6">
		<polyline class="st7" points="305.4,443.6 281.3,443.6 281.3,419.4 305.4,419.4 305.4,443.6 		"/>
	</g>
	<g id="HATCH_81_" class="st6">
		<polygon class="st19" points="305.4,443.6 281.3,443.6 281.3,419.4 305.4,419.4 305.4,443.6 		"/>
	</g>
	<g id="POLYLINE_84_" class="st6">
		<polyline class="st7" points="353.7,467.7 329.6,467.7 329.6,443.6 353.7,443.6 353.7,467.7 		"/>
	</g>
	<g id="HATCH_82_" class="st6">
		<polygon class="st19" points="353.7,467.7 329.6,467.7 329.6,443.6 353.7,443.6 353.7,467.7 		"/>
	</g>
	<g id="POLYLINE_85_" class="st6">
		<polyline class="st7" points="329.6,396.8 305.4,396.8 305.4,372.7 329.6,372.7 329.6,396.8 		"/>
	</g>
	<g id="HATCH_83_" class="st6">
		<polygon class="st0" points="329.6,396.8 305.4,396.8 305.4,372.7 329.6,372.7 329.6,396.8 		"/>
	</g>
	<g id="POLYLINE_86_" class="st6">
		<polyline class="st7" points="353.7,443.6 329.6,443.6 329.6,419.4 353.7,419.4 353.7,443.6 		"/>
	</g>
	<g id="HATCH_84_" class="st6">
		<polygon class="st19" points="353.7,443.6 329.6,443.6 329.6,419.4 353.7,419.4 353.7,443.6 		"/>
	</g>
	<g id="POLYLINE_87_" class="st6">
		<polyline class="st10" points="377.8,444.3 353.7,444.3 353.7,420.2 377.8,420.2 377.8,444.3 		"/>
	</g>
	<g id="HATCH_85_" class="st6">
		<polygon class="st11" points="377.8,444.3 353.7,444.3 353.7,420.2 377.8,420.2 377.8,444.3 		"/>
	</g>
	<g id="POLYLINE_88_" class="st6">
		<polyline class="st7" points="402,396.8 377.8,396.8 377.8,372.7 402,372.7 402,396.8 		"/>
	</g>
	<g id="HATCH_86_" class="st6">
		<polygon class="st4" points="402,396.8 377.8,396.8 377.8,372.7 402,372.7 402,396.8 		"/>
	</g>
	<g id="POLYLINE_89_" class="st6">
		<polyline class="st7" points="426.1,396.4 402,396.4 402,372.3 426.1,372.3 426.1,396.4 		"/>
	</g>
	<g id="HATCH_87_" class="st6">
		<polygon class="st4" points="426.1,396.4 402,396.4 402,372.3 426.1,372.3 426.1,396.4 		"/>
	</g>
	<g id="POLYLINE_90_" class="st6">
		<polyline class="st10" points="377.8,348.5 353.7,348.5 353.7,324.4 377.8,324.4 377.8,348.5 		"/>
	</g>
	<g id="HATCH_88_" class="st6">
		<polygon class="st11" points="377.8,348.5 353.7,348.5 353.7,324.4 377.8,324.4 377.8,348.5 		"/>
	</g>
	<g id="POLYLINE_91_" class="st6">
		<polyline class="st7" points="136.4,516 112.2,516 112.2,491.9 136.4,491.9 136.4,516 		"/>
	</g>
	<g id="HATCH_89_" class="st6">
		<polygon class="st9" points="136.4,516 112.2,516 112.2,491.9 136.4,491.9 136.4,516 		"/>
	</g>
	<g id="POLYLINE_92_" class="st6">
		<polyline class="st7" points="136.4,540.2 112.2,540.2 112.2,516 136.4,516 136.4,540.2 		"/>
	</g>
	<g id="HATCH_90_" class="st6">
		<polygon class="st9" points="136.4,540.2 112.2,540.2 112.2,516 136.4,516 136.4,540.2 		"/>
	</g>
	<g id="POLYLINE_93_" class="st6">
		<polyline class="st7" points="136.4,564.3 112.2,564.3 112.2,540.2 136.4,540.2 136.4,564.3 		"/>
	</g>
	<g id="HATCH_91_" class="st6">
		<polygon class="st9" points="136.4,564.3 112.2,564.3 112.2,540.2 136.4,540.2 136.4,564.3 		"/>
	</g>
	<g id="POLYLINE_94_" class="st6">
		<polyline class="st7" points="160.5,491.9 136.4,491.9 136.4,467.7 160.5,467.7 160.5,491.9 		"/>
	</g>
	<g id="HATCH_92_" class="st6">
		<polygon class="st9" points="160.5,491.9 136.4,491.9 136.4,467.7 160.5,467.7 160.5,491.9 		"/>
	</g>
	<g id="POLYLINE_95_" class="st6">
		<polyline class="st7" points="377.8,468.1 353.7,468.1 353.7,444 377.8,444 377.8,468.1 		"/>
	</g>
	<g id="HATCH_93_" class="st6">
		<polygon class="st19" points="377.8,468.1 353.7,468.1 353.7,444 377.8,444 377.8,468.1 		"/>
	</g>
	<g id="POLYLINE_96_" class="st6">
		<polyline class="st7" points="450.3,419.8 426.1,419.8 426.1,395.7 450.3,395.7 450.3,419.8 		"/>
	</g>
	<g id="HATCH_94_" class="st6">
		<polygon class="st4" points="450.3,419.8 426.1,419.8 426.1,395.7 450.3,395.7 450.3,419.8 		"/>
	</g>
	<g id="POLYLINE_97_" class="st6">
		<polyline class="st7" points="450.3,396.4 426.1,396.4 426.1,372.3 450.3,372.3 450.3,396.4 		"/>
	</g>
	<g id="HATCH_95_" class="st6">
		<polygon class="st4" points="450.3,396.4 426.1,396.4 426.1,372.3 450.3,372.3 450.3,396.4 		"/>
	</g>
	<g id="POLYLINE_98_" class="st6">
		<polyline class="st7" points="474.4,419.4 450.3,419.4 450.3,395.3 474.4,395.3 474.4,419.4 		"/>
	</g>
	<g id="HATCH_96_" class="st6">
		<polygon class="st4" points="474.4,419.4 450.3,419.4 450.3,395.3 474.4,395.3 474.4,419.4 		"/>
	</g>
	<g id="POLYLINE_99_" class="st6">
		<polyline class="st7" points="474.4,396.1 450.3,396.1 450.3,371.9 474.4,371.9 474.4,396.1 		"/>
	</g>
	<g id="HATCH_97_" class="st6">
		<polygon class="st4" points="474.4,396.1 450.3,396.1 450.3,371.9 474.4,371.9 474.4,396.1 		"/>
	</g>
	<g id="POLYLINE_100_" class="st6">
		<polyline class="st7" points="474.4,443.6 450.3,443.6 450.3,419.4 474.4,419.4 474.4,443.6 		"/>
	</g>
	<g id="HATCH_98_" class="st6">
		<polygon class="st4" points="474.4,443.6 450.3,443.6 450.3,419.4 474.4,419.4 474.4,443.6 		"/>
	</g>
	<g id="POLYLINE_101_" class="st6">
		<polyline class="st7" points="474.4,372.7 450.3,372.7 450.3,348.5 474.4,348.5 474.4,372.7 		"/>
	</g>
	<g id="HATCH_99_" class="st6">
		<polygon class="st4" points="474.4,372.7 450.3,372.7 450.3,348.5 474.4,348.5 474.4,372.7 		"/>
	</g>
	<g id="POLYLINE_102_" class="st6">
		<polyline class="st10" points="377.8,419.4 353.7,419.4 353.7,395.3 377.8,395.3 377.8,419.4 		"/>
	</g>
	<g id="HATCH_100_" class="st6">
		<polygon class="st11" points="377.8,419.4 353.7,419.4 353.7,395.3 377.8,395.3 377.8,419.4 		"/>
	</g>
	<g id="POLYLINE_103_" class="st6">
		<polyline class="st7" points="402,443.6 377.8,443.6 377.8,419.4 402,419.4 402,443.6 		"/>
	</g>
	<g id="HATCH_101_" class="st6">
		<polygon class="st4" points="402,443.6 377.8,443.6 377.8,419.4 402,419.4 402,443.6 		"/>
	</g>
	<g id="POLYLINE_104_" class="st6">
		<polyline class="st7" points="426.1,419.4 402,419.4 402,395.3 426.1,395.3 426.1,419.4 		"/>
	</g>
	<g id="HATCH_102_" class="st6">
		<polygon class="st4" points="426.1,419.4 402,419.4 402,395.3 426.1,395.3 426.1,419.4 		"/>
	</g>
	<g id="POLYLINE_105_" class="st6">
		<polyline class="st7" points="498.6,443.6 474.4,443.6 474.4,419.4 498.6,419.4 498.6,443.6 		"/>
	</g>
	<g id="HATCH_103_" class="st6">
		<polygon class="st4" points="498.6,443.6 474.4,443.6 474.4,419.4 498.6,419.4 498.6,443.6 		"/>
	</g>
	<g id="POLYLINE_106_" class="st6">
		<polyline class="st7" points="498.6,419.4 474.4,419.4 474.4,395.3 498.6,395.3 498.6,419.4 		"/>
	</g>
	<g id="HATCH_104_" class="st6">
		<polygon class="st4" points="498.6,419.4 474.4,419.4 474.4,395.3 498.6,395.3 498.6,419.4 		"/>
	</g>
	<g id="POLYLINE_107_" class="st6">
		<polyline class="st7" points="498.6,396.1 474.4,396.1 474.4,371.9 498.6,371.9 498.6,396.1 		"/>
	</g>
	<g id="HATCH_105_" class="st6">
		<polygon class="st4" points="498.6,396.1 474.4,396.1 474.4,371.9 498.6,371.9 498.6,396.1 		"/>
	</g>
	<g id="POLYLINE_108_" class="st6">
		<polyline class="st7" points="498.6,372.7 474.4,372.7 474.4,348.5 498.6,348.5 498.6,372.7 		"/>
	</g>
	<g id="HATCH_106_" class="st6">
		<polygon class="st4" points="498.6,372.7 474.4,372.7 474.4,348.5 498.6,348.5 498.6,372.7 		"/>
	</g>
	<g id="POLYLINE_109_" class="st6">
		<polyline class="st7" points="498.6,468.5 474.4,468.5 474.4,444.3 498.6,444.3 498.6,468.5 		"/>
	</g>
	<g id="HATCH_107_" class="st6">
		<polygon class="st4" points="498.6,468.5 474.4,468.5 474.4,444.3 498.6,444.3 498.6,468.5 		"/>
	</g>
	<g id="POLYLINE_110_" class="st6">
		<polyline class="st7" points="498.6,348.5 474.4,348.5 474.4,324.4 498.6,324.4 498.6,348.5 		"/>
	</g>
	<g id="HATCH_108_" class="st6">
		<polygon class="st4" points="498.6,348.5 474.4,348.5 474.4,324.4 498.6,324.4 498.6,348.5 		"/>
	</g>
	<g id="POLYLINE_111_" class="st6">
		<polyline class="st7" points="184.7,396.8 160.5,396.8 160.5,372.7 184.7,372.7 184.7,396.8 		"/>
	</g>
	<g id="HATCH_109_" class="st6">
		<polygon class="st0" points="184.7,396.8 160.5,396.8 160.5,372.7 184.7,372.7 184.7,396.8 		"/>
	</g>
	<g id="POLYLINE_112_" class="st6">
		<polyline class="st13" points="208.8,443.6 184.7,443.6 184.7,419.4 208.8,419.4 208.8,443.6 		"/>
	</g>
	<g id="HATCH_110_" class="st6">
		<polygon class="st2" points="208.8,443.6 184.7,443.6 184.7,419.4 208.8,419.4 208.8,443.6 		"/>
	</g>
	<g id="POLYLINE_113_" class="st6">
		<polyline class="st7" points="208.8,467.7 184.7,467.7 184.7,443.6 208.8,443.6 208.8,467.7 		"/>
	</g>
	<g id="HATCH_111_" class="st6">
		<polygon class="st19" points="208.8,467.7 184.7,467.7 184.7,443.6 208.8,443.6 208.8,467.7 		"/>
	</g>
	<g id="POLYLINE_114_" class="st6">
		<polyline class="st13" points="184.7,491.9 160.5,491.9 160.5,467.7 184.7,467.7 184.7,491.9 		"/>
	</g>
	<g id="HATCH_112_" class="st6">
		<polygon class="st20" points="184.7,491.9 160.5,491.9 160.5,467.7 184.7,467.7 184.7,491.9 		"/>
	</g>
	<g id="POLYLINE_115_" class="st6">
		<polyline class="st7" points="233,443.6 208.8,443.6 208.8,419.4 233,419.4 233,443.6 		"/>
	</g>
	<g id="HATCH_113_" class="st6">
		<polygon class="st19" points="233,443.6 208.8,443.6 208.8,419.4 233,419.4 233,443.6 		"/>
	</g>
	<g id="POLYLINE_116_" class="st6">
		<polyline class="st7" points="281.3,420.2 257.1,420.2 257.1,396.1 281.3,396.1 281.3,420.2 		"/>
	</g>
	<g id="HATCH_114_" class="st6">
		<polygon class="st0" points="281.3,420.2 257.1,420.2 257.1,396.1 281.3,396.1 281.3,420.2 		"/>
	</g>
	<g id="POLYLINE_117_" class="st6">
		<polyline class="st7" points="257.1,420.2 233,420.2 233,396.1 257.1,396.1 257.1,420.2 		"/>
	</g>
	<g id="HATCH_115_" class="st6">
		<polygon class="st0" points="257.1,420.2 233,420.2 233,396.1 257.1,396.1 257.1,420.2 		"/>
	</g>
	<g id="POLYLINE_118_" class="st6">
		<polyline class="st7" points="329.6,420.2 305.4,420.2 305.4,396.1 329.6,396.1 329.6,420.2 		"/>
	</g>
	<g id="HATCH_116_" class="st6">
		<polygon class="st0" points="329.6,420.2 305.4,420.2 305.4,396.1 329.6,396.1 329.6,420.2 		"/>
	</g>
	<g id="POLYLINE_119_" class="st6">
		<polyline class="st7" points="305.4,420.2 281.3,420.2 281.3,396.1 305.4,396.1 305.4,420.2 		"/>
	</g>
	<g id="HATCH_117_" class="st6">
		<polygon class="st0" points="305.4,420.2 281.3,420.2 281.3,396.1 305.4,396.1 305.4,420.2 		"/>
	</g>
	<g id="POLYLINE_120_" class="st6">
		<polyline class="st7" points="353.7,420.2 329.6,420.2 329.6,396.1 353.7,396.1 353.7,420.2 		"/>
	</g>
	<g id="HATCH_118_" class="st6">
		<polygon class="st21" points="353.7,420.2 329.6,420.2 329.6,396.1 353.7,396.1 353.7,420.2 		"/>
	</g>
	<g id="POLYLINE_121_" class="st6">
		<polyline class="st7" points="208.8,420.2 184.7,420.2 184.7,396.1 208.8,396.1 208.8,420.2 		"/>
	</g>
	<g id="HATCH_119_" class="st6">
		<polygon class="st0" points="208.8,420.2 184.7,420.2 184.7,396.1 208.8,396.1 208.8,420.2 		"/>
	</g>
	<g id="POLYLINE_122_" class="st6">
		<polyline class="st7" points="233,420.2 208.8,420.2 208.8,396.1 233,396.1 233,420.2 		"/>
	</g>
	<g id="HATCH_120_" class="st6">
		<polygon class="st0" points="233,420.2 208.8,420.2 208.8,396.1 233,396.1 233,420.2 		"/>
	</g>
	<g id="POLYLINE_123_" class="st6">
		<polyline class="st7" points="184.7,444.3 160.5,444.3 160.5,420.2 184.7,420.2 184.7,444.3 		"/>
	</g>
	<g id="HATCH_121_" class="st6">
		<polygon class="st2" points="184.7,444.3 160.5,444.3 160.5,420.2 184.7,420.2 184.7,444.3 		"/>
	</g>
	<g id="POLYLINE_124_" class="st6">
		<polyline class="st13" points="184.7,468.5 160.5,468.5 160.5,444.3 184.7,444.3 184.7,468.5 		"/>
	</g>
	<g id="HATCH_122_" class="st6">
		<polygon class="st2" points="184.7,468.5 160.5,468.5 160.5,444.3 184.7,444.3 184.7,468.5 		"/>
	</g>
	<g id="POLYLINE_125_" class="st6">
		<polyline class="st7" points="208.8,276.1 184.7,276.1 184.7,251.9 208.8,251.9 208.8,276.1 		"/>
	</g>
	<g id="HATCH_123_" class="st6">
		<polygon class="st0" points="208.8,276.1 184.7,276.1 184.7,251.9 208.8,251.9 208.8,276.1 		"/>
	</g>
	<g id="POLYLINE_126_" class="st6">
		<polyline class="st7" points="257.1,227.8 233,227.8 233,203.6 257.1,203.6 257.1,227.8 		"/>
	</g>
	<g id="HATCH_124_" class="st6">
		<polygon class="st8" points="257.1,227.8 233,227.8 233,203.6 257.1,203.6 257.1,227.8 		"/>
	</g>
	<g id="POLYLINE_127_" class="st6">
		<polyline class="st7" points="233,251.9 208.8,251.9 208.8,227.8 233,227.8 233,251.9 		"/>
	</g>
	<g id="HATCH_125_" class="st6">
		<polygon class="st0" points="233,251.9 208.8,251.9 208.8,227.8 233,227.8 233,251.9 		"/>
	</g>
	<g id="POLYLINE_128_" class="st6">
		<polyline class="st7" points="281.3,227.8 257.1,227.8 257.1,203.6 281.3,203.6 281.3,227.8 		"/>
	</g>
	<g id="HATCH_126_" class="st6">
		<polygon class="st8" points="281.3,227.8 257.1,227.8 257.1,203.6 281.3,203.6 281.3,227.8 		"/>
	</g>
	<g id="POLYLINE_129_" class="st6">
		<polyline class="st7" points="305.4,227.8 281.3,227.8 281.3,203.6 305.4,203.6 305.4,227.8 		"/>
	</g>
	<g id="HATCH_127_" class="st6">
		<polygon class="st8" points="305.4,227.8 281.3,227.8 281.3,203.6 305.4,203.6 305.4,227.8 		"/>
	</g>
	<g id="POLYLINE_130_" class="st6">
		<polyline class="st7" points="329.6,227.8 305.4,227.8 305.4,203.6 329.6,203.6 329.6,227.8 		"/>
	</g>
	<g id="HATCH_128_" class="st6">
		<polygon class="st8" points="329.6,227.8 305.4,227.8 305.4,203.6 329.6,203.6 329.6,227.8 		"/>
	</g>
	<g id="POLYLINE_131_" class="st6">
		<polyline class="st7" points="208.8,348.5 184.7,348.5 184.7,324.4 208.8,324.4 208.8,348.5 		"/>
	</g>
	<g id="HATCH_129_" class="st6">
		<polygon class="st0" points="208.8,348.5 184.7,348.5 184.7,324.4 208.8,324.4 208.8,348.5 		"/>
	</g>
	<g id="POLYLINE_132_" class="st6">
		<polyline class="st10" points="233,348.5 208.8,348.5 208.8,324.4 233,324.4 233,348.5 		"/>
	</g>
	<g id="HATCH_130_" class="st6">
		<polygon class="st3" points="233,348.5 208.8,348.5 208.8,324.4 233,324.4 233,348.5 		"/>
	</g>
	<g id="POLYLINE_133_" class="st6">
		<polyline class="st10" points="257.1,348.5 233,348.5 233,324.4 257.1,324.4 257.1,348.5 		"/>
	</g>
	<g id="HATCH_131_" class="st6">
		<polygon class="st3" points="257.1,348.5 233,348.5 233,324.4 257.1,324.4 257.1,348.5 		"/>
	</g>
	<g id="POLYLINE_134_" class="st6">
		<polyline class="st10" points="281.3,348.5 257.1,348.5 257.1,324.4 281.3,324.4 281.3,348.5 		"/>
	</g>
	<g id="HATCH_132_" class="st6">
		<polygon class="st3" points="281.3,348.5 257.1,348.5 257.1,324.4 281.3,324.4 281.3,348.5 		"/>
	</g>
	<g id="POLYLINE_135_" class="st6">
		<polyline class="st10" points="305.4,348.5 281.3,348.5 281.3,324.4 305.4,324.4 305.4,348.5 		"/>
	</g>
	<g id="HATCH_133_" class="st6">
		<polygon class="st3" points="305.4,348.5 281.3,348.5 281.3,324.4 305.4,324.4 305.4,348.5 		"/>
	</g>
	<g id="POLYLINE_136_" class="st6">
		<polyline class="st7" points="208.8,324.4 184.7,324.4 184.7,300.2 208.8,300.2 208.8,324.4 		"/>
	</g>
	<g id="HATCH_134_" class="st6">
		<polygon class="st0" points="208.8,324.4 184.7,324.4 184.7,300.2 208.8,300.2 208.8,324.4 		"/>
	</g>
	<g id="POLYLINE_137_" class="st6">
		<polyline class="st7" points="233,324.4 208.8,324.4 208.8,300.2 233,300.2 233,324.4 		"/>
	</g>
	<g id="HATCH_135_" class="st6">
		<polygon class="st0" points="233,324.4 208.8,324.4 208.8,300.2 233,300.2 233,324.4 		"/>
	</g>
	<g id="POLYLINE_138_" class="st6">
		<polyline class="st10" points="257.1,324.4 233,324.4 233,300.2 257.1,300.2 257.1,324.4 		"/>
	</g>
	<g id="HATCH_136_" class="st6">
		<polygon class="st11" points="257.1,324.4 233,324.4 233,300.2 257.1,300.2 257.1,324.4 		"/>
	</g>
	<g id="POLYLINE_139_" class="st6">
		<polyline class="st7" points="281.3,324.4 257.1,324.4 257.1,300.2 281.3,300.2 281.3,324.4 		"/>
	</g>
	<g id="HATCH_137_" class="st6">
		<polygon class="st9" points="281.3,324.4 257.1,324.4 257.1,300.2 281.3,300.2 281.3,324.4 		"/>
	</g>
	<g id="POLYLINE_140_" class="st6">
		<polyline class="st10" points="305.4,324.4 281.3,324.4 281.3,300.2 305.4,300.2 305.4,324.4 		"/>
	</g>
	<g id="HATCH_138_" class="st6">
		<polygon class="st3" points="305.4,324.4 281.3,324.4 281.3,300.2 305.4,300.2 305.4,324.4 		"/>
	</g>
	<g id="POLYLINE_141_" class="st6">
		<polyline class="st7" points="208.8,300.2 184.7,300.2 184.7,276.1 208.8,276.1 208.8,300.2 		"/>
	</g>
	<g id="HATCH_139_" class="st6">
		<polygon class="st0" points="208.8,300.2 184.7,300.2 184.7,276.1 208.8,276.1 208.8,300.2 		"/>
	</g>
	<g id="POLYLINE_142_" class="st6">
		<polyline class="st10" points="233,300.2 208.8,300.2 208.8,276.1 233,276.1 233,300.2 		"/>
	</g>
	<g id="HATCH_140_" class="st6">
		<polygon class="st3" points="233,300.2 208.8,300.2 208.8,276.1 233,276.1 233,300.2 		"/>
	</g>
	<g id="POLYLINE_143_" class="st6">
		<polyline class="st10" points="257.1,300.2 233,300.2 233,276.1 257.1,276.1 257.1,300.2 		"/>
	</g>
	<g id="HATCH_141_" class="st6">
		<polygon class="st3" points="257.1,300.2 233,300.2 233,276.1 257.1,276.1 257.1,300.2 		"/>
	</g>
	<g id="POLYLINE_144_" class="st6">
		<polyline class="st7" points="281.3,300.2 257.1,300.2 257.1,276.1 281.3,276.1 281.3,300.2 		"/>
	</g>
	<g id="HATCH_142_" class="st6">
		<polygon class="st9" points="281.3,300.2 257.1,300.2 257.1,276.1 281.3,276.1 281.3,300.2 		"/>
	</g>
	<g id="POLYLINE_145_" class="st6">
		<polyline class="st10" points="305.4,300.2 281.3,300.2 281.3,276.1 305.4,276.1 305.4,300.2 		"/>
	</g>
	<g id="HATCH_143_" class="st6">
		<polygon class="st3" points="305.4,300.2 281.3,300.2 281.3,276.1 305.4,276.1 305.4,300.2 		"/>
	</g>
	<g id="POLYLINE_146_" class="st6">
		<polyline class="st7" points="233,276.1 208.8,276.1 208.8,251.9 233,251.9 233,276.1 		"/>
	</g>
	<g id="HATCH_144_" class="st6">
		<polygon class="st0" points="233,276.1 208.8,276.1 208.8,251.9 233,251.9 233,276.1 		"/>
	</g>
	<g id="POLYLINE_147_" class="st6">
		<polyline class="st10" points="257.1,276.1 233,276.1 233,251.9 257.1,251.9 257.1,276.1 		"/>
	</g>
	<g id="HATCH_145_" class="st6">
		<polygon class="st3" points="257.1,276.1 233,276.1 233,251.9 257.1,251.9 257.1,276.1 		"/>
	</g>
	<g id="POLYLINE_148_" class="st6">
		<polyline class="st10" points="281.3,276.1 257.1,276.1 257.1,251.9 281.3,251.9 281.3,276.1 		"/>
	</g>
	<g id="HATCH_146_" class="st6">
		<polygon class="st3" points="281.3,276.1 257.1,276.1 257.1,251.9 281.3,251.9 281.3,276.1 		"/>
	</g>
	<g id="POLYLINE_149_" class="st6">
		<polyline class="st10" points="305.4,276.1 281.3,276.1 281.3,251.9 305.4,251.9 305.4,276.1 		"/>
	</g>
	<g id="HATCH_147_" class="st6">
		<polygon class="st3" points="305.4,276.1 281.3,276.1 281.3,251.9 305.4,251.9 305.4,276.1 		"/>
	</g>
	<g id="POLYLINE_150_" class="st6">
		<polyline class="st10" points="353.7,348.5 329.6,348.5 329.6,324.4 353.7,324.4 353.7,348.5 		"/>
	</g>
	<g id="HATCH_148_" class="st6">
		<polygon class="st3" points="353.7,348.5 329.6,348.5 329.6,324.4 353.7,324.4 353.7,348.5 		"/>
	</g>
	<g id="POLYLINE_151_" class="st6">
		<polyline class="st10" points="329.6,348.5 305.4,348.5 305.4,324.4 329.6,324.4 329.6,348.5 		"/>
	</g>
	<g id="HATCH_149_" class="st6">
		<polygon class="st3" points="329.6,348.5 305.4,348.5 305.4,324.4 329.6,324.4 329.6,348.5 		"/>
	</g>
	<g id="POLYLINE_152_" class="st6">
		<polyline class="st7" points="329.6,324.4 305.4,324.4 305.4,300.2 329.6,300.2 329.6,324.4 		"/>
	</g>
	<g id="HATCH_150_" class="st6">
		<polygon class="st9" points="329.6,324.4 305.4,324.4 305.4,300.2 329.6,300.2 329.6,324.4 		"/>
	</g>
	<g id="POLYLINE_153_" class="st6">
		<polyline class="st10" points="353.7,324.4 329.6,324.4 329.6,300.2 353.7,300.2 353.7,324.4 		"/>
	</g>
	<g id="HATCH_151_" class="st6">
		<polygon class="st11" points="353.7,324.4 329.6,324.4 329.6,300.2 353.7,300.2 353.7,324.4 		"/>
	</g>
	<g id="POLYLINE_154_" class="st6">
		<polyline class="st7" points="184.7,588.5 160.5,588.5 160.5,564.3 184.7,564.3 184.7,588.5 		"/>
	</g>
	<g id="HATCH_152_" class="st6">
		<polygon class="st9" points="184.7,588.5 160.5,588.5 160.5,564.3 184.7,564.3 184.7,588.5 		"/>
	</g>
	<g id="POLYLINE_155_" class="st6">
		<polyline class="st7" points="160.5,588.5 136.4,588.5 136.4,564.3 160.5,564.3 160.5,588.5 		"/>
	</g>
	<g id="HATCH_153_" class="st6">
		<polygon class="st9" points="160.5,588.5 136.4,588.5 136.4,564.3 160.5,564.3 160.5,588.5 		"/>
	</g>
</g>
</svg>
