<?xml version="1.0" encoding="UTF-8" standalone="no"?>
<!-- Created with Inkscape (http://www.inkscape.org/) -->

<svg
   xmlns:a="http://ns.adobe.com/AdobeSVGViewerExtensions/3.0/"
   xmlns:dc="http://purl.org/dc/elements/1.1/"
   xmlns:cc="http://creativecommons.org/ns#"
   xmlns:rdf="http://www.w3.org/1999/02/22-rdf-syntax-ns#"
   xmlns:svg="http://www.w3.org/2000/svg"
   xmlns="http://www.w3.org/2000/svg"
   xmlns:xlink="http://www.w3.org/1999/xlink"
   xmlns:sodipodi="http://sodipodi.sourceforge.net/DTD/sodipodi-0.dtd"
   xmlns:inkscape="http://www.inkscape.org/namespaces/inkscape"
   version="1.0"
   width="48pt"
   height="48pt"
   viewBox="0 0 256 256"
   id="svg2"
   xml:space="preserve"
   sodipodi:version="0.32"
   inkscape:version="0.48.2 r9819"
   sodipodi:docname="Nuvola_United_Kingdom_flag.svg"
   inkscape:output_extension="org.inkscape.output.svg.inkscape"><metadata
   id="metadata45"><rdf:RDF><cc:Work
       rdf:about=""><dc:format>image/svg+xml</dc:format><dc:type
         rdf:resource="http://purl.org/dc/dcmitype/StillImage" /><dc:title></dc:title></cc:Work></rdf:RDF></metadata><sodipodi:namedview
   inkscape:window-height="705"
   inkscape:window-width="1366"
   inkscape:pageshadow="2"
   inkscape:pageopacity="0.0"
   guidetolerance="10.0"
   gridtolerance="10.0"
   objecttolerance="10.0"
   borderopacity="1.0"
   bordercolor="#666666"
   pagecolor="#ffffff"
   id="base"
   inkscape:zoom="5.4627048"
   inkscape:cx="30"
   inkscape:cy="30"
   inkscape:window-x="-4"
   inkscape:window-y="-4"
   inkscape:current-layer="svg2"
   showgrid="false"
   inkscape:window-maximized="1" /><defs
   id="defs271"><linearGradient
     x1="87.396973"
     y1="141.97266"
     x2="240.94727"
     y2="141.97266"
     id="XMLID_22_"
     gradientUnits="userSpaceOnUse"
     gradientTransform="matrix(1.567692,0,0,1.567692,-129.3706,-94.56783)">
								<stop
   style="stop-color:#ffffff;stop-opacity:0.66666675"
   offset="0"
   id="stop139" />
								
								<stop
   style="stop-color:#d7d7d7;stop-opacity:0.21875"
   offset="0.24074516"
   id="stop143" />
								<stop
   style="stop-color:#4d4d4d;stop-opacity:0"
   offset="0.4585622"
   id="stop145" /><stop
   style="stop-color:#ffffff;stop-opacity:0.51041669"
   offset="0.71891773"
   id="stop3696" /><stop
   style="stop-color:#f2f2f2;stop-opacity:0.40000001"
   offset="0.87351298"
   id="stop2807" /><stop
   style="stop-color:#ffffff;stop-opacity:0.62352943"
   offset="1"
   id="stop3694" />
								
								
								<a:midPointStop
   style="stop-color:#E9E9EF"
   offset="0" />
								<a:midPointStop
   style="stop-color:#E9E9EF"
   offset="0.5" />
								<a:midPointStop
   style="stop-color:#B1B1C5"
   offset="0.157303" />
								<a:midPointStop
   style="stop-color:#B1B1C5"
   offset="0.5" />
								<a:midPointStop
   style="stop-color:#CECEDB"
   offset="0.314607" />
								<a:midPointStop
   style="stop-color:#CECEDB"
   offset="0.5" />
								<a:midPointStop
   style="stop-color:#FFFFFF"
   offset="0.65" />
								<a:midPointStop
   style="stop-color:#FFFFFF"
   offset="0.5" />
								<a:midPointStop
   style="stop-color:#CECEDB"
   offset="0.837079" />
								<a:midPointStop
   style="stop-color:#CECEDB"
   offset="0.5" />
								<a:midPointStop
   style="stop-color:#FFFF66"
   offset="1" />
							</linearGradient><linearGradient
     inkscape:collect="always"
     xlink:href="#XMLID_22_"
     id="linearGradient3188"
     gradientUnits="userSpaceOnUse"
     gradientTransform="matrix(1.567692,0,0,1.567692,-129.3714,-94.56962)"
     x1="87.396973"
     y1="141.97266"
     x2="269.33331"
     y2="141.97276" /><linearGradient
     y2="123.21392"
     x2="132.62358"
     y1="151.1393"
     x1="133.17909"
     gradientUnits="userSpaceOnUse"
     id="linearGradient2192"
     xlink:href="#XMLID_17_"
     inkscape:collect="always" /><linearGradient
     x1="126.18921"
     y1="39.617504"
     x2="126.18921"
     y2="112.30453"
     id="XMLID_17_"
     gradientUnits="userSpaceOnUse"
     gradientTransform="matrix(1.567692,0,0,1.567692,-69.82581,15.22741)">
								<stop
   style="stop-color:#c200be;stop-opacity:1;"
   offset="0"
   id="stop18" />
								<stop
   style="stop-color:#c200be;stop-opacity:1;"
   offset="0.19460699"
   id="stop20" />
								<stop
   style="stop-color:#1000ae;stop-opacity:1;"
   offset="0.31460699"
   id="stop22" />
								<stop
   style="stop-color:#1000ae;stop-opacity:1;"
   offset="0.72999996"
   id="stop24" />
								<stop
   style="stop-color:#00dab6;stop-opacity:1;"
   offset="0.85707897"
   id="stop26" />
								<stop
   style="stop-color:#00dab6;stop-opacity:1;"
   offset="1"
   id="stop28" />
								<a:midPointStop
   style="stop-color:#CF0000"
   offset="0" />
								<a:midPointStop
   style="stop-color:#CF0000"
   offset="0.5" />
								<a:midPointStop
   style="stop-color:#7C0000"
   offset="0.157303" />
								<a:midPointStop
   style="stop-color:#7C0000"
   offset="0.5" />
								<a:midPointStop
   style="stop-color:#CF0000"
   offset="0.314607" />
								<a:midPointStop
   style="stop-color:#CF0000"
   offset="0.5" />
								<a:midPointStop
   style="stop-color:#B80000"
   offset="0.65" />
								<a:midPointStop
   style="stop-color:#B80000"
   offset="0.5" />
								<a:midPointStop
   style="stop-color:#CF0000"
   offset="0.837079" />
								<a:midPointStop
   style="stop-color:#CF0000"
   offset="0.5" />
								<a:midPointStop
   style="stop-color:#FF0000"
   offset="1" />
							</linearGradient><linearGradient
     inkscape:collect="always"
     xlink:href="#XMLID_17_"
     id="linearGradient2470"
     gradientUnits="userSpaceOnUse"
     x1="133.17909"
     y1="151.1393"
     x2="132.62358"
     y2="123.21392" /><linearGradient
     inkscape:collect="always"
     xlink:href="#XMLID_17_"
     id="linearGradient2487"
     gradientUnits="userSpaceOnUse"
     x1="133.17909"
     y1="151.1393"
     x2="132.62358"
     y2="123.21392"
     gradientTransform="translate(-310.63041,4.2745159)" /></defs>
	
		
	



<path
   inkscape:connector-curvature="0"
   id="path15"
   style="fill:#4d4d4d"
   d="M 248.36055,32.472022 C 167.27229,-10.429768 86.183274,85.849332 5.0950169,40.005058 2.2811336,38.417463 1.7853684e-5,39.212792 1.7853684e-5,42.029738 c 0,57.313381 0,114.627522 0,171.940902 0,2.81082 2.281115746316,6.57849 5.094999046316,8.16455 81.9363991,46.325 163.8735731,-52.46409 245.8099731,-6.13986 2.81388,1.58682 5.095,0.79226 5.095,-2.02469 0,-57.31338 0,-114.627521 0,-171.940902 0,-2.810823 -2.28112,-6.577723 -5.095,-8.165317 -0.84814,-0.479187 -1.69629,-0.943066 -2.54444,-1.392399 z" /><path
   inkscape:connector-curvature="0"
   id="path30"
   style="fill:#00247d;fill-opacity:1"
   d="m 248.36055,37.567021 c 0,1.853979 -14.89154,-10.205307 -37.30922,-11.054219 -22.41617,-2.351538 -52.35541,6.505769 -82.45234,15.426609 C 98.502062,50.838819 68.2505,59.830085 45.210481,57.499214 22.170459,56.646475 6.3427413,44.472367 5.0950169,45.100057 c 0,4.876072 0,167.063303 0,171.940903 1.234711,-0.80222 16.9070381,11.48136 39.7977911,12.39534 22.889987,2.39899 52.99917,-6.56931 83.107572,-15.50775 30.10919,-8.92926 60.21836,-17.85624 83.10759,-15.43733 22.89075,0.93235 38.56307,13.21056 39.79702,12.40911 0,-4.87761 0,-167.064838 0,-171.94091 -1.27375,-0.722609 -2.54444,-1.392399 -2.54444,-1.392399 z" /><polyline
   style="fill:none"
   points="0,256 0,0 256,0 256,256 "
   id="polyline3117" /><path
   inkscape:connector-curvature="0"
   id="path2202"
   style="fill:#ffffff;fill-opacity:1"
   d="m 7.5989333,201.37002 c 0,5.91324 0,8.87393 0,14.47545 6.8961897,3.76338 16.9216277,7.80504 28.6701017,10.04447 C 93.188814,194.79225 182.00217,74.363433 248.39895,54.096041 c 0,-5.69013 0,-8.202687 0,-14.205167 -5.10932,-3.153377 -16.46319,-6.553108 -22.92307,-8.58124 C 166.12151,61.273196 62.825441,187.02777 7.5989333,201.37002 z"
   sodipodi:nodetypes="ccccccc" /><path
   inkscape:connector-curvature="0"
   id="path5112"
   style="fill:#ffffff;fill-opacity:1"
   d="m 7.5989333,69.763719 c 0,-6.456657 0,-15.837633 0,-21.342426 7.1429967,4.13359 17.1895347,7.21848 27.0626607,10.26163 41.988352,57.610097 177.702116,62.530677 213.737356,127.092117 0,10.4319 0,12.34745 0,21.25463 -5.10932,-3.15338 -21.27859,-8.17403 -28.27022,-10.05023 C 167.31359,137.06938 35.724062,127.00085 7.5989333,69.763719 z"
   sodipodi:nodetypes="ccccccc" /><path
   inkscape:connector-curvature="0"
   id="path2442"
   style="fill:#ffffff;fill-opacity:1"
   d="m 7.5989333,101.71098 c 0,5.91324 0,53.06514 0,58.66666 80.2393497,40.70225 160.5614367,-49.2385 240.8000167,-8.53333 0,-5.69013 0,-52.930843 0,-58.933323 C 168.419,50.426327 86.052373,144.71973 7.5989333,101.71098 z"
   sodipodi:nodetypes="ccccc" /><path
   inkscape:connector-curvature="0"
   id="path4435"
   style="fill:#ffffff;fill-opacity:1"
   d="m 99.294396,53.13674 c 0,5.91324 -0.107895,161.53721 -0.107895,167.13873 19.537329,-5.61456 39.197289,-12.10962 53.189429,-16.37596 0,-5.69013 0.0592,-160.830677 0.0592,-166.833157 -10.59873,3.328648 -38.68735,12.209299 -53.140694,16.070387 z"
   sodipodi:nodetypes="ccccc" /><path
   inkscape:connector-curvature="0"
   id="path4437"
   style="fill:#cf142b;fill-opacity:1"
   d="m 111.29346,49.6756 c 0,5.91324 -0.0347,161.36046 -0.0347,166.96198 6.98789,-1.90276 24.81842,-7.6306 29.61942,-9.15728 0,-5.69013 0.0592,-160.800348 0.0592,-166.802828 -11.48249,3.417024 -23.93981,7.5232 -29.6439,8.998128 z"
   sodipodi:nodetypes="ccccc" /><path
   inkscape:connector-curvature="0"
   id="path9466"
   style="fill:#cf142b;fill-opacity:1"
   d="m 7.5989333,113.19875 c 0,5.91325 0,29.51304 0,35.11456 80.2393497,40.70225 160.5614367,-50.050641 240.8000167,-9.34547 0,-5.69013 0,-28.5666 0,-34.56909 -79.97995,-42.484652 -162.346577,51.80876 -240.8000167,8.8 z"
   sodipodi:nodetypes="ccccc" /><g
   style="display:inline"
   id="layer1"><path
     inkscape:connector-curvature="0"
     d="m 248.35974,206.96001 c -80.24012,-42.45169 -160.480231,51.37712 -240.7195788,8.92543 0,-55.61478 0,-111.23035 0,-166.845894 C 87.879509,91.490468 168.11962,-2.3375794 248.35974,40.114878 c 0,55.614786 0,111.230352 0,166.845132 z"
     style="fill:url(#linearGradient3188)"
     id="path3186" /></g></svg>