<?xml version="1.0" encoding="UTF-8" standalone="no"?>
<svg
   xmlns:dc="http://purl.org/dc/elements/1.1/"
   xmlns:cc="http://creativecommons.org/ns#"
   xmlns:rdf="http://www.w3.org/1999/02/22-rdf-syntax-ns#"
   xmlns:svg="http://www.w3.org/2000/svg"
   xmlns="http://www.w3.org/2000/svg"
   xmlns:sodipodi="http://sodipodi.sourceforge.net/DTD/sodipodi-0.dtd"
   xmlns:inkscape="http://www.inkscape.org/namespaces/inkscape"
   width="180px"
   height="180px"
   viewBox="0 0 180 180"
   version="1.1"
   id="svg3405"
   inkscape:version="0.91 r13725"
   sodipodi:docname="header-background.svg">
  <metadata
     id="metadata3418">
    <rdf:RDF>
      <cc:Work
         rdf:about="">
        <dc:format>image/svg+xml</dc:format>
        <dc:type
           rdf:resource="http://purl.org/dc/dcmitype/StillImage" />
        <dc:title>glamorous</dc:title>
      </cc:Work>
    </rdf:RDF>
  </metadata>
  <sodipodi:namedview
     pagecolor="#ffffff"
     bordercolor="#666666"
     borderopacity="1"
     objecttolerance="10"
     gridtolerance="10"
     guidetolerance="10"
     inkscape:pageopacity="0"
     inkscape:pageshadow="2"
     inkscape:window-width="1366"
     inkscape:window-height="744"
     id="namedview3416"
     showgrid="false"
     inkscape:zoom="3.3722222"
     inkscape:cx="90"
     inkscape:cy="90"
     inkscape:window-x="0"
     inkscape:window-y="24"
     inkscape:window-maximized="1"
     inkscape:current-layer="svg3405" />
  <!-- Generator: Sketch 40.1 (33804) - http://www.bohemiancoding.com/sketch -->
  <title
     id="title3407">glamorous</title>
  <desc
     id="desc3409">Created with Sketch.</desc>
  <defs
     id="defs3411" />
  <g
     id="Page-1"
     stroke="none"
     stroke-width="1"
     fill="none"
     fill-rule="evenodd">
    <g
       id="glamorous"
       fill="#000000">
      <path
         d="M81.2792408,88 L68.4142136,88 L87.7117544,107.297541 L81.2792408,88 L81.2792408,88 Z M83.3874259,88 L96.6125741,88 L90,107.837722 L83.3874259,88 L83.3874259,88 Z M98.7207592,88 L111.585786,88 L92.2882456,107.297541 L98.7207592,88 L98.7207592,88 Z M65.7928932,85.7928932 L73.5857864,78 L75.2071068,78 L105.792893,78 L106.414214,78 L106.914214,78.5 L114.207107,85.7928932 L115.414214,87 L90.7071068,111.707107 L90,112.414214 L64.5857864,87 L64.5857864,87 L65.7928932,85.7928932 L65.7928932,85.7928932 Z M68.4142136,86 L74,80.4142136 L79.5857864,86 L68.4142136,86 L68.4142136,86 Z M84.4142136,86 L90,80.4142136 L95.5857864,86 L84.4142136,86 L84.4142136,86 Z M100.414214,86 L106,80.4142136 L111.585786,86 L100.414214,86 L100.414214,86 Z M92.4142136,80 L103.585786,80 L98,85.5857864 L92.4142136,80 L92.4142136,80 Z M82,85.5857864 L87.5857864,80 L76.4142136,80 L82,85.5857864 L82,85.5857864 Z M17.4142136,0 L0.707106781,16.7071068 L0,17.4142136 L0,0 L17.4142136,0 L17.4142136,0 Z M4.27924078,0 L0,12.8377223 L0,0 L4.27924078,0 L4.27924078,0 Z M14.5857864,0 L2.28824561,12.2975408 L6.38742589,0 L14.5857864,0 L14.5857864,0 Z M180,17.4142136 L162.585786,0 L180,0 L180,17.4142136 L180,17.4142136 Z M165.414214,0 L177.711754,12.2975408 L173.612574,0 L165.414214,0 Z M180,12.8377223 L175.720759,0 L180,0 L180,12.8377223 L180,12.8377223 Z M1.42108547e-14,163 L15.7928932,163 L16.4142136,163 L16.9142136,163.5 L24.2071068,170.792893 L25.4142136,172 L17.4142136,180 L0,180 L0,163 L1.42108547e-14,163 Z M0,173 L6.61257411,173 L4.27924078,180 L0,180 L0,173 Z M14.5857864,180 L21.5857864,173 L8.72075922,173 L6.38742589,180 L14.5857864,180 Z M2.4158453e-13,165.414214 L5.58578644,171 L0,171 L0,165.414214 L2.4158453e-13,165.414214 Z M10.4142136,171 L16,165.414214 L21.5857864,171 L10.4142136,171 Z M2.41421356,165 L13.5857864,165 L8,170.585786 L2.41421356,165 Z M180,163 L165.207107,163 L163.585786,163 L155.792893,170.792893 L155.792893,170.792893 L154.585786,172 L162.585786,180 L180,180 L180,163 Z M165.414214,180 L158.414214,173 L171.279241,173 L173.612574,180 L165.414214,180 Z M180,173 L173.387426,173 L175.720759,180 L180,180 L180,173 Z M158.414214,171 L164,165.414214 L169.585786,171 L158.414214,171 Z M180,165.414214 L174.414214,171 L180,171 L180,165.414214 Z M172,170.585786 L177.585786,165 L166.414214,165 L172,170.585786 Z M152.932504,25.6532829 L154.346717,27.0674965 L120.405592,61.008622 L118.991378,59.5944084 L152.932504,25.6532829 Z M154.346717,152.932504 L152.932504,154.346717 L118.991378,120.405592 L120.405592,118.991378 L154.346717,152.932504 Z M27.0674965,154.346717 L25.6532829,152.932504 L59.5944084,118.991378 L61.008622,120.405592 L27.0674965,154.346717 Z M25.6532829,27.0674965 L27.0674965,25.6532829 L61.008622,59.5944084 L59.5944084,61.008622 L25.6532829,27.0674965 Z M0,85 C2.209139,85 4,86.790861 4,89 C4,91.209139 2.209139,93 0,93 L0,85 Z M180,85 C177.790861,85 176,86.790861 176,89 C176,91.209139 177.790861,93 180,93 L180,85 Z M94,0 C94,2.209139 92.209139,4 90,4 C87.790861,4 86,2.209139 86,0 L94,0 Z M94,180 C94,177.790861 92.209139,176 90,176 C87.790861,176 86,177.790861 86,180 L94,180 Z"
         id="Combined-Shape" />
    </g>
  </g>
  <path
     style="fill:#ff2a2a"
     d="m 26.392401,153.57859 c -0.562349,-0.62138 -0.546845,-0.63802 16.320058,-17.50687 l 16.88294,-16.88489 0.593407,0.59341 0.593407,0.59341 -16.913464,16.91346 -16.913464,16.91347 -0.562884,-0.62199 z"
     id="path3420"
     inkscape:connector-curvature="0" />
  <path
     style="fill:#ff2a2a"
     d="m 77.320383,99.531271 -12.52873,-12.531332 4.378769,-4.371469 4.378768,-4.371468 16.45081,0 16.45081,0 4.37877,4.371468 4.37877,4.371469 -12.52873,12.531332 C 95.788815,106.4235 90.082988,112.0626 90,112.0626 c -0.08299,0 -5.788815,-5.6391 -12.679617,-12.531329 z M 93.455816,97.99508 c 1.816129,-5.453776 3.227169,-9.990844 3.135639,-10.082372 -0.217421,-0.217422 -12.965489,-0.217422 -13.182911,0 C 83.22415,88.097102 89.75483,107.91104 90,107.91104 c 0.08457,0 1.639686,-4.46218 3.455816,-9.91596 z m -8.842417,-0.462955 -3.26357,-9.785832 -6.498638,0 c -3.57425,0 -6.498637,0.09932 -6.498637,0.22072 0,0.275489 19.048819,19.350947 19.323923,19.350947 0.110271,0 -1.268114,-4.40363 -3.063078,-9.785835 z m 17.468941,0.224117 c 5.26081,-5.258944 9.56511,-9.662569 9.56511,-9.785832 0,-0.123265 -2.92439,-0.224117 -6.49864,-0.224117 l -6.498639,0 -3.263572,9.785832 c -1.794962,5.382205 -3.174875,9.785835 -3.066473,9.785835 0.108403,0 4.501397,-4.30278 9.762214,-9.561718 z M 79.621087,86.035329 c 0,-0.125544 -1.26771,-1.4907 -2.817133,-3.033682 l -2.817134,-2.805419 -2.817133,2.805419 c -1.549423,1.542982 -2.817133,2.908138 -2.817133,3.033682 0,0.125544 2.53542,0.228262 5.634266,0.228262 3.098847,0 5.634267,-0.102718 5.634267,-0.228262 z m 16.01318,0 c 0,-0.125544 -1.26771,-1.4907 -2.817134,-3.033682 L 90,80.196228 87.182867,83.001647 c -1.549424,1.542982 -2.817134,2.908138 -2.817134,3.033682 0,0.125544 2.53542,0.228262 5.634267,0.228262 3.098847,0 5.634267,-0.102718 5.634267,-0.228262 z m 16.013183,0 c 0,-0.125544 -1.26771,-1.4907 -2.81714,-3.033682 l -2.81713,-2.805419 -2.81713,2.805419 c -1.54943,1.542982 -2.81714,2.908138 -2.81714,3.033682 0,0.125544 2.53542,0.228262 5.63427,0.228262 3.09885,0 5.63427,-0.102718 5.63427,-0.228262 z m -26.768343,-3.10196 c 1.511714,-1.505428 2.74857,-2.839859 2.74857,-2.965403 0,-0.125545 -2.53542,-0.228263 -5.634267,-0.228263 -3.098847,0 -5.634267,0.09758 -5.634267,0.216834 0,0.240294 5.386377,5.713974 5.622839,5.713974 0.0817,0 1.385412,-1.231714 2.897125,-2.737142 z m 16.013183,0 c 1.51171,-1.505428 2.74857,-2.839859 2.74857,-2.965403 0,-0.125545 -2.53542,-0.228263 -5.63427,-0.228263 -3.098847,0 -5.634267,0.09758 -5.634267,0.216834 0,0.240294 5.386377,5.713974 5.622838,5.713974 0.08171,0 1.385413,-1.231714 2.897129,-2.737142 z"
     id="path3422"
     inkscape:connector-curvature="0" />
  <path
     style="fill:#ff2a2a"
     d="M 42.757059,43.913573 25.918718,27.073288 26.540699,26.510403 c 0.62139,-0.562349 0.637967,-0.546899 17.431747,16.24688 l 16.809764,16.809764 -0.593404,0.593407 -0.593407,0.593404 -16.83834,-16.840285 z"
     id="path3424"
     inkscape:connector-curvature="0" />
  <path
     style="fill:#ff2a2a"
     d="m 0.14827018,14.943802 c 0,-1.778883 0.29856971,-2.969397 2.10044192,-8.3752797 2.0946064,-6.284129 2.1028448,-6.30163597 2.9654036,-6.30163597 0.4757291,0 0.8649617,0.037209 0.8649617,0.0826866 0,0.0454776 -0.8673805,2.67713177 -1.9275123,5.84812067 -1.0601318,3.1709888 -1.9275124,5.9015334 -1.9275124,6.0678784 0,0.166344 2.779531,-2.4747238 6.1767356,-5.8690392 C 14.415642,0.38679473 14.606197,0.22754143 15.67156,0.32010337 l 1.094036,0.0950531 -8.3086628,8.30114419 -8.30866302,8.3011443 0,-2.073643 z"
     id="path3426"
     inkscape:connector-curvature="0" />
  <path
     style="fill:#ff2a2a"
     d="m 87.980508,3.2246881 c -0.797373,-0.486145 -1.835533,-2.0698018 -1.835533,-2.80000713 0,-0.086787 1.734761,-0.15779464 3.855025,-0.15779464 2.120264,0 3.855025,0.0710076 3.855025,0.15779464 0,0.0867871 -0.192135,0.61763773 -0.426966,1.17966823 -0.84533,2.0231582 -3.494439,2.8111187 -5.447551,1.6203389 z"
     id="path3428"
     inkscape:connector-curvature="0" />
  <path
     style="fill:#ff2a2a"
     d="m 171.40232,8.5739937 -8.30115,-8.30710737 1.18159,0 c 1.14192,0 1.38827,0.20650439 7.33739,6.15056437 3.38569,3.3828106 6.1558,6.0144653 6.1558,5.8481213 0,-0.166345 -0.86738,-2.8968896 -1.92752,-6.0678784 -1.06013,-3.1709889 -1.92751,-5.80264303 -1.92751,-5.84812067 0,-0.0454776 0.38924,-0.0826866 0.86496,-0.0826866 0.86275,0 0.87039,0.0162836 2.97967,6.34441847 1.90266,5.7082552 2.10584,6.5412202 2.0263,8.3071072 l -0.0884,1.962689 -8.30114,-8.3071073 z"
     id="path3430"
     inkscape:connector-curvature="0" />
  <path
     style="fill:#ff2a2a"
     d="m 178.03477,92.288191 c -1.77667,-1.10264 -2.34568,-3.990396 -1.09865,-5.575733 0.53304,-0.67765 2.14785,-1.635028 2.75782,-1.635028 0.0868,0 0.15779,1.734761 0.15779,3.855025 0,3.476764 -0.0509,3.85425 -0.51895,3.847134 -0.28542,-0.0043 -0.86952,-0.225469 -1.29801,-0.491398 z"
     id="path3432"
     inkscape:connector-curvature="0" />
  <path
     style="fill:#ff2a2a"
     d=""
     id="path3434"
     inkscape:connector-curvature="0" />
  <path
     style="fill:#ff2a2a"
     d="m 119.802,60.167701 c -0.56235,-0.621388 -0.5469,-0.637965 16.24688,-17.431745 l 16.80977,-16.809765 0.5934,0.593405 0.59341,0.593405 -16.84029,16.838342 -16.84028,16.83834 -0.56289,-0.621982 z"
     id="path3436"
     inkscape:connector-curvature="0" />
  <path
     style="fill:#ff2a2a"
     d="M 136.11203,137.26853 C 119.21844,120.373 119.21844,120.373 119.81152,119.77991 c 0.59308,-0.59308 0.59308,-0.59308 17.48667,16.30246 16.89358,16.89554 16.89358,16.89554 16.3005,17.48862 -0.59308,0.59308 -0.59308,0.59308 -17.48666,-16.30246 z"
     id="path3438"
     inkscape:connector-curvature="0" />
  <path
     style="fill:#ff2a2a"
     d="m 158.79716,175.96684 -3.99526,-4.0035 4.44048,-4.4479 4.44048,-4.44789 8.08444,0 8.08443,0 0,1.10672 c 0,1.00367 -0.26868,1.37641 -2.88571,4.00329 l -2.8857,2.89658 2.8857,0 2.88571,0 0,0.88962 0,0.88962 -3.26194,0 c -1.79407,0 -3.26195,0.10722 -3.26195,0.23827 0,0.13105 0.46705,1.62515 1.03789,3.32021 0.57084,1.69507 1.03789,3.18916 1.03789,3.32021 0,0.13105 -0.37319,0.23828 -0.82931,0.23828 -0.79761,0 -0.87358,-0.13599 -1.98782,-3.55849 l -1.15851,-3.55848 -6.68135,0 -6.68135,0 3.54922,3.55848 3.54921,3.55849 -1.18564,0 c -1.12734,0 -1.38215,-0.1969 -5.18091,-4.00351 z m 8.30333,-7.70984 c -1.54298,-1.54942 -2.94413,-2.81713 -3.11367,-2.81713 -0.16954,0 -1.57069,1.26771 -3.11367,2.81713 l -2.80542,2.81714 5.91909,0 5.91909,0 -2.80542,-2.81714 z m 7.85832,-0.44481 2.95428,-2.9654 -5.91968,0 -5.91968,0 2.95428,2.9654 c 1.62485,1.63097 2.95928,2.9654 2.9654,2.9654 0.006,0 1.34055,-1.33443 2.9654,-2.9654 z"
     id="path3440"
     inkscape:connector-curvature="0" />
  <path
     style="fill:#ff2a2a"
     d="m 4.5963756,179.73207 c 0,-0.13105 0.4670511,-1.62514 1.0378913,-3.32021 0.5708402,-1.69506 1.0378913,-3.18916 1.0378913,-3.32021 0,-0.13105 -1.4678748,-0.23827 -3.261944,-0.23827 l -3.26194402,0 0,-0.88962 0,-0.88962 2.88570482,0 2.8857052,0 -2.8857052,-2.89658 c -2.61702445,-2.62688 -2.88570482,-2.99962 -2.88570482,-4.00329 l 0,-1.10672 8.08443252,0 8.0844333,0 4.440483,4.44789 4.440484,4.4479 -3.995261,4.0035 c -3.798767,3.80661 -4.053573,4.00351 -5.180907,4.00351 l -1.185646,0 3.549213,-3.55849 3.549214,-3.55848 -6.681347,0 -6.6813467,0 -1.1585132,3.55848 c -1.1142416,3.4225 -1.1902048,3.55849 -1.9878234,3.55849 -0.4561206,0 -0.8293101,-0.10723 -0.8293101,-0.23828 z M 19.126853,168.257 c -1.542981,-1.54942 -2.944134,-2.81713 -3.113673,-2.81713 -0.16954,0 -1.570693,1.26771 -3.113674,2.81713 l -2.80542,2.81714 5.919094,0 5.919093,0 -2.80542,-2.81714 z m -8.15486,-0.44481 2.954277,-2.9654 -5.9196802,0 -5.9196801,0 2.9542765,2.9654 c 1.624852,1.63097 2.9592836,2.9654 2.9654036,2.9654 0.00612,0 1.3405516,-1.33443 2.9654032,-2.9654 z"
     id="path3442"
     inkscape:connector-curvature="0" />
  <path
     style="fill:#ff2a2a"
     d="m 0.14827018,88.932455 c 0,-2.120264 0.0710076,-3.855025 0.15779464,-3.855025 0.60996022,0 2.22477998,0.957378 2.75781988,1.635028 1.2641088,1.607054 0.6661491,4.518264 -1.1481846,5.590017 -1.6975132,1.002746 -1.76742992,0.869433 -1.76742992,-3.37002 z"
     id="path3444"
     inkscape:connector-curvature="0" />
</svg>
